<svg width="80" height="80" viewBox="0 0 80 80" fill="none" xmlns="http://www.w3.org/2000/svg">
<path d="M16.3282 62.9648L11.2896 61.1857C9.34052 60.4975 9.58199 57.6696 11.6189 57.3287L20.8325 55.787C22.8694 55.4462 24.0291 58.0396 22.4142 59.3242L18.2393 62.645C17.7005 63.0735 16.9785 63.1944 16.3282 62.9648L15.9979 63.9036L16.3282 62.9648Z" fill="#8DE8F2" stroke="black" stroke-width="2"/>
<path d="M17.4324 62.6699L24.3682 62.1133C26.4042 61.9499 27.2907 64.6642 25.5778 65.8167L15.3717 72.6835C13.6588 73.836 11.5926 71.9154 12.5526 70.0631L15.8229 63.7528C16.1437 63.1338 16.752 62.7245 17.4324 62.6699Z" fill="#8DE8F2" stroke="black" stroke-width="2"/>
<path d="M65.2434 65.0304L65.9558 69.6735C66.1432 70.8951 64.8809 71.8036 63.7965 71.2275L58.9295 68.6415C57.8451 68.0654 57.8575 66.4927 58.9507 65.9515L63.1053 63.8944C64.0088 63.4471 65.0885 64.0207 65.2434 65.0304Z" fill="#8DE8F2" stroke="black" stroke-width="3"/>
<path d="M74.336 44.8256C76.1069 68.2051 61.6728 69.3037 46.2209 67.7789C-6.66608 62.56 25.6352 65.2701 23.6839 50.6576C21.3687 33.3205 34.0252 21.8569 48.9673 20.7276C61.2999 19.7955 72.9594 26.6518 74.336 44.8256Z" fill="#8DE8F2"/>
<path d="M74.336 44.8256C76.1069 68.2051 61.6728 69.3037 46.2209 67.7789C-6.66608 62.56 25.6352 65.2701 23.6839 50.6576C21.3687 33.3205 34.0252 21.8569 48.9673 20.7276C61.2999 19.7955 72.9594 26.6518 74.336 44.8256Z" fill="#8DE8F2"/>
<path d="M74.336 44.8256C76.1069 68.2051 61.6728 69.3037 46.2209 67.7789C-6.66608 62.56 25.6352 65.2701 23.6839 50.6576C21.3687 33.3205 34.0252 21.8569 48.9673 20.7276C61.2999 19.7955 72.9594 26.6518 74.336 44.8256Z" stroke="black" stroke-width="4"/>
<rect width="2.72498" height="13.1641" rx="1.36249" transform="matrix(0.992956 -0.118482 0.112778 0.99362 67.0083 45.5928)" fill="black"/>
<path d="M51.2144 15.0455L54.8321 19.3344C55.0792 19.6274 55.2369 19.985 55.2863 20.3647L55.445 21.5845C55.4879 21.9142 55.4477 22.2494 55.3281 22.5595L55.0631 23.2465C54.8125 23.896 54.2412 24.3683 53.555 24.4931L52.6853 24.6513C52.2106 24.7377 51.7204 24.6499 51.3051 24.4041L50.4682 23.909C50.0397 23.6554 49.7212 23.2516 49.5748 22.7764L47.7699 16.9177C47.1289 14.837 49.8096 13.38 51.2144 15.0455Z" fill="white" stroke="black" stroke-width="2"/>
<path d="M64.3786 24.1997L59.8079 27.3733C59.4922 27.5925 59.1199 27.7161 58.7355 27.7295L57.5173 27.7718C57.1844 27.7833 56.8537 27.7117 56.5553 27.5635L55.8958 27.2358C55.273 26.9263 54.8554 26.3163 54.7928 25.6247L54.7133 24.7457C54.6699 24.2658 54.8016 23.7866 55.0841 23.3963L55.6443 22.6224C55.9367 22.2184 56.3699 21.9383 56.8588 21.8371L62.8267 20.6019C64.9597 20.1604 66.1666 22.9583 64.3786 24.1997Z" fill="white" stroke="black" stroke-width="2"/>
</svg>
